<?xml version="1.0" encoding="utf-8"?>
<!-- Generator: Adobe Illustrator 21.0.0, SVG Export Plug-In . SVG Version: 6.00 Build 0)  -->
<svg version="1.1" id="Layer_1" xmlns="http://www.w3.org/2000/svg" xmlns:xlink="http://www.w3.org/1999/xlink" x="0px" y="0px"
	 viewBox="0 0 1280 800" style="enable-background:new 0 0 1280 800;" xml:space="preserve">
<style type="text/css">
	.st0{fill:#666666;stroke:#666666;stroke-miterlimit:10;}
	.st1{fill:#666666;}
	.st2{fill:#009497;}
</style>
<path class="st0" d="M979,313.4c4,7.5,13.2,12.3,22.2,12.4c9,0,17.4-2.9,24.7-6.5c1.7-0.8,3.1-1.8,1.5-1.1l4.7-2.7
	c3-1.9,1.4-1.2,4.4-3.1c11.3-8.1,22.9-19.9,23.8-35.8c0.5-7.5-1.4-15.5-6.1-21.8c-4.8-6.4-13.2-9.5-20.8-8.9
	c7.5-0.1,13.9,1.8,19.3,7.6c-0.1,0.1-0.1,0.1,1.1,1.6c7.4,9.4,6.8,23.7,4.6,28.7c-0.6,1.7-1.3,3.6-3.9,8.4c0.9-1.7,1.7-3.2,2.4-5
	c-0.1,0-0.2-0.1-0.2-0.1c-2.5,7-8.8,13.7-14.1,18.2l-0.2-0.2c-0.9,0.8-1.8,1.6-2.7,2.3c-3.1,1.9,12.4-10.2,15.3-19.1l-0.3-0.1
	l-1.6,3.1l-0.1-0.1c3.9-7,5.3-14.3,4.1-21.8c0,0-0.1,0.1-0.1,0.2c-0.9-6.6-4.7-14.2-10.3-17.4c-1.6-0.7,0.1,0,3.5,3.6
	c3.3,3.8,4.7,7,5.9,12l-0.2,0c-0.6-3.3-2.5-8.1-4.7-10.6c-1-1.3,1.7,2.9,0.7,1.6c-0.9-1.4-2-2.6-3.2-3.7c3.6,3.3,6.7,9.5,7.1,14.5
	c0.2,1.7,0.2,3.3,0,3.3c0.5,8.3-2.8,14.8-5.6,18.5c-0.6,1-3.4,4.6-6.4,7.7c-10.2,9.7-23.6,17.6-37.4,19.5
	c-14.2,2.8-26.7-9-22.8-21.9c0.2-1.6,1.3-4.6,1.9-6c4.5-12.1,16.8-24.4,29.2-28.2c6-2.3,10.9-3.7,10.9-3.8c1.6-0.3,3.3-0.9,1.6-0.9
	c-3.4,0.1-11.5,2.2-11.6,2.1c0,0,1.6-0.7,3.2-1.1c-0.1-0.3,4.8-2.1,6.5-2.3c1.6-0.6,12-1.7,13.7-1.6c5.3-0.2-10.5-2-17.6-0.4
	c-3.5,0.6-0.1-0.4-0.1-0.7c-3.5,0.8-5.4,1-8.8,2.3c-0.1-0.4-10.2,4-14.7,7.5c-0.1-0.1-1.4,1.2-5.5,4.9c-1.3,1.3-1.2,1.4-1.1,1.5
	l-0.1-0.1c-1,1.5-3.7,4.3-4.6,5.6l-0.1-0.1c-2.1,3.1-4.2,6.2-5.7,9.6l-0.2-0.1c-0.7,1.7-1.5,3.5-1.5,3.5l-0.2-0.1
	c-0.8,1.7-1.6,5.5-1.7,5.5l0.2,0C975.3,301.2,976.1,307.8,979,313.4z M1041.7,301c-0.6,0.6-1.2,1.1-1.8,1.6
	C1040.6,302,1041.2,301.5,1041.7,301z M1055.1,262.7c0.8,2.3,1.4,4.5,1.8,6.7c0,0,0,0,0,0C1056.8,267.7,1055.8,264.3,1055.1,262.7z
	 M896.5,391.3l-1-0.8c0,0-0.1,0-0.1,0C895.7,390.7,896.1,391,896.5,391.3C896.5,391.4,896.5,391.4,896.5,391.3z M896.4,391.8
	c1.8,1.3-2.6-2.1-1-1.3c-0.4-0.4-0.7-0.6-0.8-0.8C893.7,389.2,894.9,390.3,896.4,391.8z M908.9,400.1c-1-0.7-2.1-1.3-1.5-1.3
	l1.1,0.6c0.4,0-0.5-0.5-1.3-1C907.4,398.8,905.1,398,908.9,400.1z M990.4,398.7c-1.8,1.1-3.4,1.1-5.1,1.7c0,0.2,4.2-0.9,0.7,0.4
	c1.9-0.7,3.7-1.4,2.2-0.5C991.5,399,988.2,399.9,990.4,398.7z M936,408.7h-0.1h0c1.5,0.6,5.3,0.4,8.2,0.6l0.3-0.7
	C940.8,409,940.1,408.5,936,408.7z M895.6,389.7c1,0.8,2.5,2.3,2,2.1l1.6,1c-1.6-1.2-3-2.6-4.5-3.9c0.7,0.9,2,2.3,1.8,2.5l1.9,1.8
	C896.6,391.3,896.3,390.6,895.6,389.7z M985.9,400.9c-0.4,0.2-0.8,0.3-1.2,0.5C985.2,401.1,985.6,401,985.9,400.9z M907.2,398.4
	c0-0.1-0.3-0.3-0.8-0.7C906.3,397.8,906.8,398.1,907.2,398.4z M941.5,406l0.4,0c0.2,0,0.3,0,0.4-0.1c2.4,0.1,4.8,0.1,6.6,0
	c1.1,0.2,1.9,0.3,3.2,0.4c2.1,0.2-2.6,1-3.8,1.3c7.3,1,25.7-3.1,39.5-8.9c2.2-0.9,3.3-2,5.5-2.9l3.1-1c2.1-0.9,5.3-2.6,6.3-3
	c8.3-2.9,22.4-12,30.9-17.8c5.7-3.8,11.2-8.4,17.4-13.5c5.4-4.2,12.3-12.5,18.4-19.6l2.1-3.1c2.1-2.9,6-7,6.6-8.1
	c7.4-11,14.7-21.3,20-30.7c8.3-14.1,16.2-28,23.2-41.2l0.7-0.6c0.7-1.5,1.4-3,1.5-3.4c0.4-0.8,0.9-1.6,1.3-2.5
	c1.3-2.1,2.3-3.9,2.8-5.4c1.1-1.6,0.5-0.5,1.2-1.3c1.3-2.6,2.8-5.3,4.5-8c0.6-0.8,1.4-1.9,2.9-4.4l-0.1-0.2
	c5.2-8.2,11-15.9,14.3-19.5c2.2-4.8,6.7-9.6,10-14.6c4.4-5.6,9-12.7,13.2-16.4c6.1-6.2,11.2-11.6,15.8-16.5c0.4-0.3,0.7-0.7,1.1-1
	c0.2-0.3,0.4-0.6,0.7-0.8c5.3-5.6,10.1-10.5,15.1-15.3c-2-0.2-4-0.7-14.1,7.1c-1.3,1.1-2.7,2.3-4,3.5c-2.3,1.8-4.8,3.9-7.5,6.2
	c-2.8,3.3-7.3,8.3-11.3,13l-0.8,0.7c-0.8,0.9-1.8,2.3-2.9,3.7c-1.2,1.5-2.3,2.9-3.2,4.1c-12.2,13.8-21.3,27.8-29.8,42
	c-6.8,11.1-12.8,22.9-18.4,33.8c-1.3,1.4-3.3,3.9-5.6,7.9c-6.4,11-15.4,25.5-19.2,34.1c-2.7,3.2-5.2,7.1-6.3,9.2
	c-1.5,2.7-3.2,5.4-5,8.1c-4.8,6.4-10,12.8-14.7,18.8c-3.4,3.9-6.8,7.6-10.2,11.1c-6.3,6.8-14.3,12.8-19.7,17.2
	c-3.7,3-7.1,5.5-10.5,7.7c-1.2,0.7-2.6,1.4-4,2.3c0.8-0.5,1.4-0.9,2.1-1.2l0,0.2c-0.9,0.6-1.8,1.1-2.7,1.7
	c-4.4,2.4-9.8,5.3-11.5,5.7c-1.6,1.5,2-0.4,5.2-2.3c-3.4,2-7.5,4.3-11.4,6.2c1.4-0.8,2.4-1.6,4.2-2.2c0.8-0.6,0.4-0.6-0.8-0.1
	c-3.5,2-10.3,4.8-10.7,5.3c-0.7,0.3-1.4,0.5-2,0.6l-1.7,1.1l-0.8,0.3c0.2,0,0.5-0.1,0.8-0.1c-4.8,2-10,3.8-13.6,5.4
	c0.7-0.2,1.4-0.3,1.8-0.4c-0.7,0.2-1.3,0.3-1.8,0.4c-0.4,0.2-0.7,0.4-0.9,0.6c-1.4,0.2,0.7-0.5,1.2-0.8c-3.5,1.1-6,1.9-7,2.5
	c1.9-0.5,3.8-1,5.7-1.6c-0.3,0.2-0.4,0.4-0.4,0.5c-1.9,0.8-3.5,1.5-4.2,1.7c-4.7,1-8.3,1.5-11.6,1.8c0.1-0.1,0.2-0.1,0.3-0.2
	c2.4-0.4,5.8-1.1,7.1-1.5l-4.2,0.5l-1.4,0.6c-0.6,0.1-0.9,0.1-1.1,0.1c0,0,0,0-0.1-0.1c0,0,0-0.1,0-0.1l-0.3,0.1c-0.1,0-0.2,0-0.4,0
	l-0.1,0.1l-1.9,0.4c-0.1,0-0.1,0.1-0.1,0.1c-1.8,0-3.5,0-7.3,0.3c0,0,0,0-0.1,0c-1.9,0-4,0.1-6.4,0.1c-0.5,0-2.1,0.2-3.6,0.4
	c-0.1,0-0.3,0-0.4,0c-1.1,0.1-1.8,0.3-2.1,0.4c-0.6,0.1-0.9,0.2-1,0.2c1,0.4,3.8,0.7,6.8,0.8L941.5,406z M957.9,403.5L957.9,403.5
	c-0.1,0.1-0.1,0.1-0.2,0.1h-0.4C957.5,403.6,957.7,403.6,957.9,403.5z M1032.9,378.3c-0.8,0.3-2.4,1.5-3.5,2.2l2.7-1.4
	C1032.5,378.9,1032.1,379,1032.9,378.3z M965.8,401l-0.5,0c-3.5,1.2-5.2,1-10.3,2C958.8,402.7,962.8,401.9,965.8,401z M966.8,400.4
	l-0.9,0.3c2.7-0.6,1.9,0,5.1-1.1L966.8,400.4z M1017.4,388.1c1.6-0.6,4.5-2.7,5.7-3.5c-2,0.8-4,2.2-6.5,3.4
	C1019,386.8,1017.4,387.9,1017.4,388.1z M965,400.9l0.3,0l0.6-0.2L965,400.9z M1019.8,387.4c1.2-0.1,2.8-1.6,4.9-3L1019.8,387.4z
	 M994.9,398.2l0.9-0.5l-2.5,0.7L994.9,398.2z M997.1,396.4c0,0.1,2.7-1.1,5-2.1c-1.6,0.7-3,1.2-3.3,1.2L997.1,396.4z M993.8,397.4
	c1.7-0.6,3.8-1.5,4.7-2.1C996.8,396.1,995.2,396.5,993.8,397.4z M1005,393.6c3.1-1.9,1.5-1.2-0.9-0.2c0.7-0.3,1.2-0.4,1.3-0.4
	c-2,1-3.9,2.1-5.9,3L1005,393.6z M1004.1,393.4c-0.6,0.2-1.2,0.5-2,0.9L1004.1,393.4z M1010,391.2l0.8-0.4l0-0.5
	C1009.2,391.2,1010,391.1,1010,391.2z M901.8,396.9l0.8,0.4c-1.7-1.2-3.2-2.7-4.8-4C897.9,394.1,900.1,395.2,901.8,396.9z
	 M1174.5,189.8c-3.7,6.5-5.9,10.3-10.2,18.6c-3,6.2,2.9-3.4,5.3-7.4c8.2-15.7,21.1-31.7,29.1-44.3
	C1193.9,158.3,1180.9,180.6,1174.5,189.8z M1182.2,184.4c-5.3,7.9-7.8,10.9-12.8,19.7l1.8-1.1c5.4-8.2,11.5-16.6,18.2-26.2
	C1192.9,169.7,1180.8,188.1,1182.2,184.4z M1171.3,659.1c1,5.2-1.3,1.2,2.6,15.1c1.7,5.8,4.6,12,5,12.9c1.5,2.5-2.9-11.8-5.3-21.1
	L1171.3,659.1z M1202.7,152.3c-1.2,1.5-3.9,5.7-0.3,1.5c1.2-1.5,2.5-3.3,3.1-4.2C1206.2,148.4,1203.9,151.1,1202.7,152.3z
	 M1181.9,689l1.1,0.6l-2.1-3.4C1181.4,687.5,1181.4,687.8,1181.9,689z M1167,644.3c0,0.2-1.2-3.4-0.9-1.9l1.9,6.5
	c0.4-2.3-0.3-2-2.8-12L1167,644.3z M1164.3,216.4l4.3-8.2c2.3-6.9-15.3,25.8-8.8,11c0.5-1.6-0.9,0.1,1.4-4.9
	c-1.8,2.4-4.5,7.9-5.5,10.2c-2.9,3.2-10.2,21-11.5,21.1c-5.3,14.9-9.6,21.1-14.4,34.8c-5.9,17.3-1.3,6.3-2.3,11.5
	c-2.7,8.7-4.7,17.7-5.5,23.2c-1,4.8-2.2,7.7-1.6,4.4c-9.3,36.2-10.3,75.5-4.2,112.3c1.4,15.2,5,28.9,6.3,43.7l-0.2-2.5
	c0.1-0.4,0.5,1.5,0.8,3c-0.2-2.5-0.4-4.8-0.5-7.1c0.7,4.3,1.5,8.7,2.3,13c1.9,4.6,5,24.6,7.4,30.5c5,23.9,2.3,14,7.5,38
	c3.4,12.7,7.6,27.8,11.4,42.9c1.4,5.5,2.3,10.6,1.8,9.7c1.8,6.6,4.3,15.9,6.1,22.7c8.9,28.6,0.6-4.2-2.2-15.1
	c1.4,2.3,4.8,16.7,5.1,15.1c0.1-0.7,0.2-1.4-0.1-3.2l-2.3-7.1c-4.5-18.2,2.9,7.3,0.3-5c-0.7-2.6-1.1-3.9-1.5-5
	c-1.9-5.8-1.6-4.1-1.1-0.5c-4.6-17.2-0.9-11.2-3.4-20.6c-3.5-12.9-2.7-4.6-3.9-7.6c1.2-0.2-3.8-23.9-8.1-43
	c-4.6-17.8-7.9-38.1-12.8-59.5c-1.6-9.2-3.6-21.3-5.4-33.5l0.2,0c-0.1-0.3-0.2-0.5-0.3-0.5c-0.6-9-4.5-29.8-3.2-32.1l-0.3-2.2
	c-1-10.9,0.5-0.1,0.2-6.3c-0.8-10,0.2-23.2-0.5-28.4c0.1-0.8,0.1,0.3,0.2-0.5l0.2-8.1c-0.3-0.6-0.5-2.2-0.9-0.9
	c0.1-1.9,0-3.6,0.4-6.3c0.7-6.8,0.7-0.7,1.2-3.1c1.4-17.1,5.1-36.5,10.3-52c0.8,0.2,6.1-17.7,8.8-25.1c6-14.5,11.8-31.9,17.7-42.3
	c-2.5,6.7-8.3,17.4-8,19l1.6-2.9c3.2-6.6,8.5-16.9,10-21c-2.2,3.4-2.7,3.5-3.5,4.6c1.3-3,1.3-3.6,3.1-7.3c2.7-5.4,5.9-11.1,6.3-10.8
	c-1.5,2.9-3.2,6-4.6,8.6c0,1.2,4.9-8.1,6.9-11C1165.7,216.9,1173.4,202.1,1164.3,216.4z M1121.4,392.8c0.3-0.3,0.2-5.1,0.2-8.9
	l-0.6-1.1L1121.4,392.8z M1149.1,561.5c0.7,2.6,1.4,4.8,2.8,10.3c1.1,3.2,0.7-0.6-0.3-4.7C1150.7,565.1,1148.3,556.4,1149.1,561.5z
	 M1131.5,304.2c-0.2,1.9-2.3,10.3-3.2,14.8c0.3,1.2,2.1-5.9,2.9-8.2l0.7-3.2C1133.7,299.7,1133.2,299.3,1131.5,304.2z M893.7,396.8
	c0,0-0.1,0-0.3-0.1C893.7,396.8,893.9,396.9,893.7,396.8z M893.1,397.1c-0.1,0-0.1,0-0.2,0c0,0,0,0,0,0.1
	C893,397.1,893.1,397.1,893.1,397.1z M893.3,396.7c0,0-0.1,0-0.1,0c0,0,0,0,0,0C893.3,396.7,893.3,396.7,893.3,396.7z M988.5,428.1
	c-1.1,0.2-1.1,0.2-2.3,0.3c2.7-0.9,5.2-1.9,7.6-2.7c-0.5,0-0.6-0.1-1.7-0.1l1.2-0.2c1-0.7,3.6-1.5,4.7-2.1c-0.2,0.3,0.8,0.1,1.6-0.2
	l-0.4,0c3.2-1,6.7-2.5,9.5-3.6c0.4-0.2,0.7-0.2,0.9-0.2l2.5-1.3c-0.1,0.4,2.3-0.6,1.1,0c1.8-1.1,3.9-1.9,5.6-3
	c6.5-3,13.3-6.8,19.5-10.8l-0.2,0c2.2-1.4,3.9-3.1,6.7-4.5c1.7-1.5,4.4-3.3,4.9-4.3c2.2-1.4,2.9-2.2,5-3.6c-0.7,0.1,1.9-1.6,0.7-1.2
	c-1.7,0.5-1.6,0.8-3,1.3l0.1,0.1c-6,3-11.9,6-17.9,9.1c-3.8,2.4-8.2,4.4-12.4,6.5c-4.4,2.3-9.3,4.7-13.1,6.6
	c-0.9,0.5-1.7,0.5-2.5,0.7c-3.6,1.6-8.3,3.2-12.5,4.6l0.2-0.1c-2.2,0.8-4,0.8-6.2,1.5c0,0.1-0.3,0.2-0.5,0.3
	c-0.4-0.2-13,3.7-13.9,3.3l-0.7,0.1c-4.8,0.3-9.8-0.3-13.9-0.3c-0.9,0.2-1.9,0.3-2.7,0.5c-0.7-0.2-0.9,0.1-1.8,0
	c-2.1-1-3.5-0.9-2.4-0.4c-1.8-0.1-3.6-0.4-5.3-0.6l-2.3-0.2c-0.7,0-1-0.2-1.3-0.5c-1.6-0.2-1.1-0.3-2.8-0.8
	c-0.3-0.4-4.3-0.6-4.8-0.9l0.3,0c-1.9-0.6-3-1.5-4.8-2.2c-5.1-1.9-10.6-4.3-15-6.7c-0.2,0.3,1,0.5,0.9,0.9c-2.6-1.5-5.1-3.2-7.6-4.9
	c-0.4-0.4-0.9-0.8-1.1-1.1c-0.8-0.6-0.6-0.2-1.1-0.6l0.1-0.3c-1-0.4-1.1-1.1-1.9-1.6c-0.1,0.1-0.4-0.1-0.7-0.3
	c0.2-0.3-0.9-0.6-0.7-0.8h0l-0.5-0.4c-0.4-0.1-3.9-1.6-4.3-1.8l-0.1-0.2c-0.5-0.3-0.8-0.3-0.5,0l-0.5-0.4l0.1,0l-0.6-0.4
	c-0.1-0.1-0.1-0.3,0.1-0.3c-0.4-0.1-0.8-0.4-1-0.6c0.8,0.8,1.7,1.8,2.4,2.7c-0.4-0.2-1-0.8-1.5-1.1c-0.3-0.5-1.3-1.4-1.9-2.1
	c-0.2-0.1-0.5,0.1-0.8-0.3c0-0.3-0.4-0.3-0.6-0.7c0.4,0.2,0.8,0.5,1.1,0.8c0.1-0.3-0.8-0.8-1-1.1c-0.2,0-0.8-0.7-1.3-1
	c0.2,0,0.1-0.2-0.1-0.4c0,0,0,0-0.1,0c0,0,0,0,0,0c-0.1-0.1-0.2-0.2-0.3-0.3c-0.3-0.3-0.5-0.3-0.5-0.2c-0.1,0,0,0.1,0,0.2
	c-0.9-0.4-1.8-0.8-1.7-0.7c0.1,0.1,0,0.1,0,0.1c0,0,0,0-0.1,0c-0.1,0-0.2,0,0,0.2l0.2,0c1.3,1.1-2.1,0.3-0.7,1.6
	c-0.5-0.8,0.4-0.1,1.1,0.4c0,0.2,0.2,0.5,0.6,1c0.4,0.3,0.3,0.1,0.5,0.1c0.2,0.3,0.6,0.7,0.4,0.8c0.5,0.1,0.5,0.6,0.9,0.8
	c0.4,0.2,0-0.1,0.4,0c0.5,0.4,1.2,1.1,1.6,1.4c0.1,0.2,0.4,0.9-0.1,0.8c-0.8-0.6,0.6-0.1-0.3-0.7c0.1,0.6-0.8-0.5-1.2-0.4
	c0.2,0.4,0.7,0.8,1.2,1.1l-0.1-0.1c0.4,0.3,1.3,0.8,1.6,1.3c-0.2,0,0,0.3-0.4,0.1l0.6,0.5c0.1,0,0.2,0,0-0.1
	c0.3,0.1,0.6,0.4,0.7,0.6c0,0.2,3.4,1.8,3.3,1.7c0.2,0.1,0.3,0.3,0.4,0.4c-1.1-0.6-3.7-2-3.2-1.8c0.2,0.5,5.1,2.7,5.3,3.1
	c0.3,0.2,0.7,0.4,0.7,0.3c0.5,0.4-0.3,0.1,0,0.5c0,0,0-0.1,0.1,0l0.3,0.4c0.9,0.4,2.1,1.4,3.1,1.7c-0.3,0-0.8,0-1.4-0.2l-0.1-0.1
	c-0.1,0-0.6-0.3-0.7-0.1c0.5,0.4,1,0.7,1.6,0.9l0.2,0.3l0-0.1c0.1,0.2,0.1,0.2,0,0.2h-0.1c0.1,0.6,2.3,1.1,3.2,1.9
	c0.3,0.1,0.1-0.1,0.5,0.1c1,0.7,1.6,1.2,2.7,1.9c0.4,0,0.5,0,0.2-0.4l0.8,0.5c-1,0,1.3,1.3,0.3,1.2c0.2,0.3,0.7,0.5,1.2,0.7
	c0.1-0.1,0.3-0.2,0.9,0.1c0.8,0.5,0.6,0.4,1.2,0.9c0.1,0.2-0.2,0.2-0.2,0.3c1.1,0.3,0.8,0.8,1.8,1.2c0.6,0.3,2,0.8,2.1,0.6
	c0.9,0.4,0.8,0.6,0.6,0.7l0.7,0.4c-2.3-0.9-4.7-2.2-7-3.4c4.6,3.5,10.7,6.7,15.5,6.2c0.1,1.1,5.3,3.3,5.5,3l3.5,0.3
	c7.4,0.8,15.3,2,23.7,2.1c4.7,0.3,17.1-1.2,21.8-2.1L988.5,428.1z M891.3,396.8c-0.2-0.1-0.1-0.2,0.1-0.1
	C891.4,396.7,891.4,396.8,891.3,396.8z M892.8,397c0,0,0.1,0,0.1,0c-0.1-0.2-0.6-0.6-0.9-0.8c-0.1,0.1,0,0.2,0,0.2
	c-0.1,0-0.3-0.1-0.4-0.2c0,0-0.1,0-0.1-0.1l-0.1-0.1c-0.1,0-0.2-0.1-0.3-0.2c-0.1-0.1-0.1-0.1-0.1-0.2l0.3,0.2
	c-0.2-0.2,0.5,0.1,1.3,0.4c0.2,0.2,0.7,0.7,0.6,0.7c0,0,0.1,0,0.1,0l0.2,0.2C893.2,397.3,893,397.2,892.8,397z M992.8,499.6
	c0.4-2.1,1.6-5.7,2.4-7.4c2-5.1,3.6-11.9,5.5-17.3c2.7-5,0.6-3.3,2.7-8c1.6-2.9,3.9-8.1,5.3-9.6c-2.1,4-1.6,5-3.9,9.2
	c1.1-1.5-3.2,7.4-0.9,3.8c3-8.7,9.4-18.2,13.3-25.6c0.5,1.1,6.3-8.3,8.4-11.3l0.4,0c2.1-2.4,3.4-4.3,6.3-8.4
	c3.6-4.8,7.4-9.4,11.2-12.8c5.5-5,10.8-12.2,12.6-15c-7,5.9-11.8,13.2-17.4,17.2c4.3-4.6,4.5-5.1,7.3-9.1l-2,1.7l1.3-1.7
	c-1,0.6,0.7-1.7,0.2-1.8l-5.2,5.7c3-2.8,1.5-0.5,1,0.6l-2.7,2.9c0.7-0.6,2.4-2.3,0.7,0c-1.1,1.2-2.3,2.9-3.6,4.1l1.4-2.9
	c-2.7,4-6.2,5.9-8.7,10l-1.6,0.6l-2.7,3.7l0.1-0.6l-3.4,4.3c-1.6,2.5-1.6,3.1-1.6,3.7c-1.3,1.9-2.4,3.8-3.1,4.4l1.1-2.5l-1.5,1.9
	c1.1-1.3-0.9,1.9-1,2.5c-3.1,4.6-2.2,3.2-4.4,6c-1.5,3.3-4.4,6.7-3.8,7.3c-3.5,5.5-6.8,11.8-9.2,17.5l-0.8,2.7
	c-3.2,6.7-3.9,10.1-6.2,17.4l0-0.6l-0.7,4.2c-2,5.5-1.7,7.9-3.7,14.3c-1.8,7-1.7,10.4-1.1,12.8c-0.2,3.5-1.3,7.8-1.8,10.8l0-2
	l-0.7,2.5c-0.3,4.5-0.7,4.7-0.8,10.6c-1,8,0.5,6.9,0.9,10.3l-1.2,7.6l0.2-0.2c0.9,4.6,0.3,3.5,0.2,14.2l0.6-0.5
	c-0.6,3.6,0.2,5.2,0.2,9.8c0,2.3-0.8,9.2,0,13.2c-0.4,8.1,1.4,12,1.6,19c-0.3,4.2,0.8,7.1-0.1,8l0-0.8l-0.9,1.6l0.7,0.2
	c-0.2,2.5,0.2,6.1-0.4,8.3l1.4,5.8c-0.2-1.4-0.2-3-0.1-4.6l-0.2,0.2c-0.1-1.5-0.4-5.2-0.2-7l0.3,2.1c0.1-2.4,0.5-0.4,0.6,0.3
	c-0.1,4.9,0.5,3.5,0.7,7.2c0,0.8,0,2.4-0.3,1.9c0.2,2.2-0.1,7.9,0.6,8.1l-0.1,0.4c1.1-0.8,2.2-3.3,3.2-6.5c-0.2-2.3-0.5-4.4-0.9-6.3
	c0.5-10-1.8-14.9-1.7-25.2c-0.3-9.1-1-15.6-0.6-24.4c-2.1-2.8,0.3-17-0.8-23.5c-0.1-4.3-0.8-6.8-1.3-3.4c0.2-6.1,1-4.4,0.9-9.5
	l0.6,1.7c0.2-1.6,0.8-3.4,0.8-5.6l-0.5-2.5c1.3-5.9,0.3-9.4,1.6-15.8c-1,4.1-0.1-2-0.7-1.6c0.4-0.9,1.2-4.8,1.2-3.4
	c1.1-5.4,0.9-10.6,2.6-13.5l0.1-2c0.3-3.5,1.6-6,2.6-9L992.8,499.6z M1064.6,465.5c4.4-1.7,8.9-3.1,13.4-4.3
	c0.3-0.1,0.5-0.2,0.5-0.2c0,0-0.3,0-0.6,0.1C1073.3,462.3,1068.9,463.8,1064.6,465.5z M993.2,642.1c-0.1,0.2-0.1,0.4-0.1,0.4
	l0.1-0.2L993.2,642.1L993.2,642.1z M1049.9,474l1.1-0.8l1.2-0.7c3.6-2.3,7.5-4.1,11.3-5.8c1.5-0.5,2.7-1.1,2.7-1.2
	c0-0.1-1.2,0.2-2.6,0.7l0.7-0.3c0.2-0.1,0.4-0.2,0.3-0.2c-0.1,0-0.4,0.1-0.6,0.2c-0.8,0.3-1.6,0.8-2.4,1.1
	c-6.4,2.7-12.4,6.4-17.9,10.7c4.8-4,10.2-7.4,15.9-10.1c-8.6,4.1-16.4,9.5-22.8,16.3l-1.8,1.8l0,0c-0.3,0.1-0.7,0.5-1.3,1
	c3.7-4.1,7.8-7.9,12.2-11.1c3.7-2.7,7.7-5.1,11.8-7.1c0.6-0.3,1.1-0.6,1.1-0.6c0-0.1-0.5,0.1-1.1,0.4c-1,0.4-2,1-3,1.6
	c0.8-0.5,1.3-0.9,1.3-1c0-0.1-0.4,0-1.2,0.4c4.4-2.5,8.9-4.5,13.4-6.3c0.3-0.1,0.4-0.2,0.3-0.2c-0.1,0-0.4,0.1-0.6,0.2
	c-6.7,2.2-12.9,5.6-18.8,9.3c-4.6,3-9.1,6.2-13.3,10.5c-6.3,6.1-11,13-15,20.1c-1.4,2.6-2.9,5.1-4.1,7.8c0.1-0.4,0.2-0.6,0.1-0.7
	l-0.1,0c1-2.4,2.3-4.6,3.6-6.9c11.6-21.5,31.1-36.8,53.6-43c1.4-0.4,2.4-0.8,2.2-0.9c-0.2,0-1.5,0.2-3,0.6
	c-10.7,3.1-20.2,7.7-29.3,14.6c-6.4,5-11.4,10.2-16.3,16.7c-5.7,7.7-9.9,15.5-13.5,24l-1,2.5l-1,2.6c-2.5,6.8-4.5,13.6-6.2,20.5
	c1.9-8.2,4.2-16.3,7.2-24.2c0.2-0.6,0.3-1,0.3-0.9c-0.1,0.1-0.3,0.6-0.5,1.1c-4.3,10.9-7.1,22.2-9.3,33.6c-1,3-2.4,9.6-3.2,15.5
	c-0.3,2.2-0.5,4.2-0.7,6.3l0.4-2.8c-0.3,2.8-0.6,5.2-0.7,7.6l-0.1,0.6c-0.9,5.5-1.4,11.9-2,17.8l0.2-0.4c-0.1,1.1-0.3,1.7-0.4,2.9
	l0.2-1v0.1c-0.2,1.3-0.4,2.8-0.5,4.4c-0.6,3.6-1,8.1-1.5,12.7c-0.1,0.6-0.2,1.5-0.3,2.5c-0.1,0.4-0.1,1-0.2,1.3
	c-0.5,2.8-1,6.3-1.6,10.2l0.4-2.2c-0.1,1.1-0.3,2.2-0.5,3.4l0.1-0.4c-0.7,3.8-1.4,9-1.6,11.6c-0.2,2.6,0.4,1.8,1.3-1.9l0.1-0.4
	c-0.3,1.9-0.5,3.5-0.5,4.5c0,0.5,0.2,0.1,0.3,0c0.1,0.2,0.5-1.3,0.9-3.3c0.1-0.6,0.2-1.2,0.3-1.8c0.4-2.3,0.8-4.6,1.2-6.8
	c0.1-0.4,0.1-1,0.1-1.2c0-0.2-0.1,0-0.2,0.4c-0.3,1.6-0.6,3.2-0.9,4.8l0,0.5c0-0.1,0-0.1,0-0.2l-0.1,0.4c0-0.1,0-0.2,0-0.3l0.1-0.3
	c0-0.3,0-0.5,0.1-0.9c0.5-2.8,0.9-5.5,1.3-8.2c0-0.2,0.1,0.1,0.1-0.2l0.1-0.5l-0.2,1.5c-0.1,2.1-0.2,2.9-0.2,3.4l0,0c0,0,0,0,0,0.2
	l-0.1,0.8l0,0l0,0.2l-0.1,0.9c0,0.4-0.1,0.7-0.1,0.8l-0.1,0.4c-0.3,1.7-0.3,1.7-0.6,3.5l0-0.1c0,0.1-0.1,0.7-0.2,1.4
	c-0.1,0.7-0.1,0.7-0.4,2.3c0,0,0,0,0.2-0.8c0,0,0,0-0.2,0.7c0,0,0,0,0.1-0.2c0,0,0,0-0.1,0.3c0,0,0,0,0,0.3c0,0,0,0-0.5,1.4
	c0,0.1,0,0.4-0.1,1c0,0,0,0.2,0,0.3c0,0,0,0,0,0.6l0.1,0c0.1-0.2,0.1-0.2,0.1-0.2c0,0,0.1-0.2,0.2-0.5c0-0.3,0.1-0.3,0.3-1.3v0.2
	c0.1,0.2,0.1,0.2,0.6-1c0,0,0.2-0.7,0.5-1.8c0.3-1.3,0.3-1.3,0.5-2.8c0,0,0.1-0.3,0.2-0.9c0.1-0.4,0.2-0.5,0.2-0.8l0,0l-0.1,0.8
	c0,0.7,0,0.8,0.2,0.3c0.1,0.8,0.3,0.4,0.7-0.6c0,0.3,0.1,0.5,0.1,0.4c0,1.1,0.1,1.9,0.2,2.2l0.2,0.2c0.2-0.3,0.5-1.2,0.8-2.6
	l0.1-0.4l0.1,0.4c0.7-1.7,1.4-5.3,2.1-7.5l0.4-1.7c0.3-1.2,0.6-3.1,0.9-5.4l0.3-2.4l0.2-1.5c-0.1,2.5,0.1,4,0.4,3.5
	c0.5-0.8,1.4-6.4,1.9-12.5c1.4-16.4,2.6-32.2,5.1-48.6c1.8-12.1,4-23.1,7.9-34.3c3.5-10.8,8-20.8,14.3-29.8c5.3-7.5,10-12.8,16.4-18
	c0.2-0.1,0.2-0.2,0.1-0.1l-0.6,0.4c-10.3,8-18.4,18.6-24.7,31.1l-2,4.3l-0.2,0.5l-1.8,3.9l0.6-1.4c0.4-0.9,0.7-1.7,0.6-1.8
	c0,0-0.1,0.1-0.2,0.3c1.4-3.4,2.9-6.7,4.5-9.8c0.5-0.9,0.9-1.8,1.4-2.5c2.2-3.5,4.6-6.9,7.1-10.1l0.7-0.7c0.9-1,1.7-2,2-2.6l0.2-0.4
	c6.1-7.1,13.7-13.1,21.4-17.5c0.4-0.2,0.6-0.4,0.5-0.4l0.5-0.3c0.9-0.5,2-1.1,3.1-1.6c0.2-0.1,0.4-0.2,0.2-0.2
	c-0.1,0-0.4,0.2-0.6,0.3c-1.1,0.6-2.3,1.1-3.3,1.7l-0.2,0.2c-0.2,0.1-0.6,0.3-0.9,0.5c-8.1,4.5-15,10.2-21.1,17.2
	c2.9-3.5,6.3-6.7,10-9.9c4.6-3.7,9.1-6.8,14.5-9.4c0.3-0.1,0.5-0.3,0.4-0.3c0,0-0.3,0.1-0.6,0.2c-11,5.4-19.2,12.7-27.2,22.4
	l-0.9,1.2c2.3-3.1,4.6-6.2,7.3-9c8.2-8.3,18.4-14.3,29.1-18.4c0.5-0.2,0.9-0.4,0.9-0.4c0,0-0.5,0.1-1,0.3
	C1061.4,467.5,1055.5,470.6,1049.9,474z M994.6,637.4l0.1-0.4C994.8,637,994.8,637,994.6,637.4z M995.2,621.1c0-1,0.1-2,0.1-2.9
	c0.6-4.5,1.1-8.9,1.6-13.7l0.1-0.9l0.2-1.3v0.2l-0.2,1.8l0.1-0.3l-0.7,6.9C996,614.1,995.6,617.6,995.2,621.1z M996.9,627l-0.2,0.7
	C996.8,627.6,996.9,627.4,996.9,627L996.9,627z M996.8,618.8c-0.2,0.9-0.4,2-0.6,3.3c0.3-2.2,0.6-4.7,0.8-7l0.8-7.6l-0.1,0.9
	c0,0.3-0.1,0.8,0,0.6l-0.7,7.2L996.8,618.8z M997.8,635.2l-0.2-1.5l0.3,1.3L997.8,635.2z M1013.9,514.2c-0.1,0.3-0.2,0.5-0.2,0.6
	c0,0,0.1-0.2,0.2-0.4c3.7-8.6,8.4-16.8,14.2-24.3c0.2-0.3,0.4-0.5,0.4-0.5c0,0-0.2,0.1-0.4,0.4
	C1022.3,497.4,1017.7,505.7,1013.9,514.2z M1062.7,466.4C1062.9,466.3,1062.9,466.3,1062.7,466.4c-0.2,0-0.5,0.2-0.7,0.3
	c-0.2,0.1-0.2,0.1,0,0L1062.7,466.4z M993.6,640.3c-0.1,0.5-0.2,0.9-0.3,1.6l0,0.3l0.2-0.9C993.6,640.6,993.6,640.2,993.6,640.3z
	 M994.2,634.8l0-0.4L994.2,634.8c0,0,0,0.1,0,0.2L994.2,634.8z M1063.6,466c0.2-0.1,0.5-0.2,0.7-0.3c0.2-0.1,0.1-0.1,0-0.1
	c-0.3,0.1-0.6,0.2-0.8,0.4C1063.4,466,1063.4,466,1063.6,466z M1062.7,466.3c0.2-0.1,0.5-0.2,0.7-0.3c0,0,0-0.1,0.1-0.1
	C1063.2,466,1063,466.2,1062.7,466.3z M1064.2,465.6C1064.2,465.6,1064.2,465.6,1064.2,465.6c0.1-0.1,0.2-0.1,0.3-0.1
	C1064.4,465.6,1064.3,465.6,1064.2,465.6L1064.2,465.6z M1160.1,651.3c-3-9.3-7-19.9-8.3-24.6c-0.5-1.6-0.8-3.2-2.5-7.8l1.7,4.6
	c0.1,0,0.2-0.1,0.2-0.1c-2.2-6.1-4.9-13.8-7.2-19.9c0,0,0.2,0,0.2-0.1l-1.2-3c-0.6-3.3,5.8,13.5,8.6,21.1l0.3-0.1l-1.1-3.1l0.2-0.1
	c2.6,7.1,4.8,13.2,7.2,19.9c0.1,0,0.1-0.1-0.4-1.6c2.2,6.1,4.7,13.9,6.9,20c0.6,1.5,0.3-0.1-1.1-4.8c-1.5-4.6-2.6-7.7-4.2-12.3
	l0.1-0.1c1.1,3.1,2.6,7.7,3.7,10.8c0.6,1.5-0.8-3.2-0.2-1.7l1.6,4.6c-1.5-4.7-3.7-10.8-5.2-15.4c-0.5-1.6-0.9-3.1-0.8-3.2
	c-2.8-7.6-4.8-13.9-6.1-18.6c-0.3-1.2-2.1-6-3.7-10.2c-9.4-25.7-20.5-52.4-30.7-76.1c-0.6-1.5-1.8-4.6-2.4-6.1
	c-5.3-11.9-12.5-26.6-18.8-38.1c-3.2-5.7-6.4-9.5-6.4-9.5c-0.9-1.4-2.1-2.6-1.4-1.1c1.5,2.9,5.4,10.1,5.1,10.2
	c-0.1,0-0.8-1.4-1.6-2.8c-0.3,0.2-3.3-3.8-4.1-5.2c-0.9-1.4-6.4-9.5-7.3-10.8c-2.8-4,3.8,9.1,6.6,14.9c1.4,2.9-0.4,0.2-0.6,0.4
	c1.6,2.8,2.2,4.3,3.8,7.1c-0.1,0.1,4.4,8.7,6.5,13c0,0,0.8,1.4,2.9,5.8c0.7,1.5,0.8,1.4,0.9,1.4l-0.2,0.1c0.9,1.4,2.2,4.4,2.9,5.8
	l-0.1,0.1c1.5,2.8,2.8,5.9,4.2,8.7l-0.1,0.1c0.7,1.5,1.4,2.9,1.3,3l-0.2,0.1c0.6,1.5,2.1,4.4,1.9,4.5l0.2-0.1
	c2.7,5.9,4.6,10.4,6.5,14.9c4.9,12,11.3,26.9,16.9,40.4c0.6,1.5,1.4,3,0.9,1.4l1.8,4.5c1.2,3,0.8,1.4,2,4.4
	c9.8,24.1,18.3,48.7,26.2,73.4c-1.9-6.2-3.1-10.9-5.3-17C1160.4,652.9,1160.6,652.8,1160.1,651.3z M1160.4,644.3
	c-0.7-2.1-1.5-4.1-2.1-6.2l0,0C1158.7,639.7,1159.8,642.7,1160.4,644.3z"/>
<g>
	<path class="st1" d="M395.8,283.1c-1.3,1-1.9,2.4-1.9,4.1c0,1.7,0.8,3,2.3,4.1c1.5,1,5.1,2.2,10.6,3.5c5.5,1.4,9.8,3.4,12.9,6.1
		c3.1,2.7,4.6,6.7,4.6,11.9c0,5.2-2,9.5-5.9,12.7c-3.9,3.3-9.1,4.9-15.5,4.9c-9.2,0-17.6-3.4-25-10.3l7.8-9.5
		c6.3,5.5,12.1,8.3,17.5,8.3c2.4,0,4.3-0.5,5.6-1.5c1.4-1,2-2.4,2-4.2c0-1.8-0.7-3.1-2.2-4.2c-1.4-1-4.3-2.1-8.6-3.1
		c-6.8-1.6-11.8-3.7-14.9-6.3c-3.1-2.6-4.7-6.7-4.7-12.2c0-5.5,2-9.8,6-12.8c4-3,8.9-4.5,14.9-4.5c3.9,0,7.8,0.7,11.7,2
		c3.9,1.3,7.3,3.2,10.2,5.7l-6.6,9.5c-5.1-3.8-10.3-5.8-15.7-5.8C398.8,281.6,397.1,282.1,395.8,283.1z"/>
	<path class="st1" d="M484.6,321.8c-5.9,5.8-13.2,8.6-21.8,8.6c-8.6,0-15.9-2.9-21.8-8.6c-5.9-5.8-8.9-12.9-8.9-21.5
		c0-8.6,3-15.7,8.9-21.5c5.9-5.8,13.2-8.6,21.8-8.6c8.6,0,15.9,2.9,21.8,8.6c5.9,5.8,8.9,12.9,8.9,21.5
		C493.4,308.9,490.5,316.1,484.6,321.8z M480.1,300.4c0-5.2-1.7-9.6-5-13.3c-3.3-3.7-7.4-5.5-12.3-5.5c-4.9,0-9,1.8-12.3,5.5
		s-5,8.1-5,13.3c0,5.2,1.7,9.6,5,13.3c3.3,3.6,7.4,5.5,12.3,5.5c4.9,0,9-1.8,12.3-5.5C478.5,310,480.1,305.6,480.1,300.4z"/>
	<path class="st1" d="M519.9,314.8c2.2,2.7,5.1,4.1,8.8,4.1c3.7,0,6.6-1.3,8.7-4.1c2.1-2.7,3.2-6.4,3.2-11.1v-32.2h13v32.7
		c0,8.5-2.3,15-7,19.5c-4.7,4.5-10.7,6.8-18,6.8c-7.3,0-13.3-2.3-18-6.8c-4.7-4.6-7.1-11.1-7.1-19.5v-32.7h13v32.2
		C516.6,308.4,517.7,312.1,519.9,314.8z"/>
	<path class="st1" d="M591.9,282.8v47.1h-13v-47.1h-16.5v-11.3h46.1v11.3H591.9z"/>
	<path class="st1" d="M654.2,271.5h13v58.4h-13v-23H631v23h-13v-58.4h13v24.4h23.2V271.5z"/>
	<path class="st1" d="M699.8,305.1l10.4-33.6h13.6l10.3,33.6l11.6-33.6h14.1l-20.4,58.4h-9.7l-12.8-40.6l-12.7,40.6h-9.7l-20.4-58.4
		h14.1L699.8,305.1z"/>
	<path class="st1" d="M808.8,271.5v11.6h-29.1v12h26.1v11.1h-26.1v12.1h30v11.5h-43v-58.4H808.8z"/>
	<path class="st1" d="M834.9,283.1c-1.3,1-1.9,2.4-1.9,4.1c0,1.7,0.8,3,2.3,4.1c1.5,1,5.1,2.2,10.6,3.5c5.5,1.4,9.8,3.4,12.9,6.1
		c3.1,2.7,4.6,6.7,4.6,11.9c0,5.2-2,9.5-5.9,12.7s-9.1,4.9-15.5,4.9c-9.2,0-17.6-3.4-25-10.3l7.8-9.5c6.3,5.5,12.1,8.3,17.5,8.3
		c2.4,0,4.3-0.5,5.6-1.5c1.4-1,2-2.4,2-4.2c0-1.8-0.7-3.1-2.2-4.2c-1.4-1-4.3-2.1-8.6-3.1c-6.8-1.6-11.8-3.7-14.9-6.3
		c-3.1-2.6-4.7-6.7-4.7-12.2c0-5.5,2-9.8,6-12.8c4-3,8.9-4.5,14.9-4.5c3.9,0,7.8,0.7,11.7,2c3.9,1.3,7.3,3.2,10.2,5.7l-6.6,9.5
		c-5.1-3.8-10.3-5.8-15.7-5.8C837.9,281.6,836.2,282.1,834.9,283.1z"/>
	<path class="st1" d="M898.8,282.8v47.1h-13v-47.1h-16.5v-11.3h46.1v11.3H898.8z"/>
</g>
<g>
	<path class="st1" d="M416.9,628.9c7.8,0,14.2-3.1,19.1-9.3l10.2,10.5c-8.1,9.1-17.6,13.6-28.6,13.6c-11,0-20-3.5-27.1-10.4
		c-7.1-6.9-10.6-15.7-10.6-26.2c0-10.6,3.6-19.4,10.8-26.4c7.2-7.1,16.1-10.6,26.5-10.6c11.7,0,21.5,4.4,29.3,13.3l-9.9,11.2
		c-5-6.2-11.3-9.4-18.7-9.4c-6,0-11.1,2-15.3,5.9c-4.2,3.9-6.4,9.2-6.4,15.8s2,11.9,6,15.9C406.4,626.9,411.2,628.9,416.9,628.9z"/>
	<path class="st1" d="M517.1,633.2c-7.2,7-16.1,10.5-26.6,10.5c-10.5,0-19.4-3.5-26.6-10.5c-7.2-7-10.8-15.8-10.8-26.2
		c0-10.5,3.6-19.2,10.8-26.2c7.2-7,16.1-10.5,26.6-10.5c10.5,0,19.4,3.5,26.6,10.5c7.2,7,10.8,15.8,10.8,26.2
		C527.9,617.4,524.3,626.1,517.1,633.2z M511.7,607c0-6.3-2-11.8-6.1-16.2s-9.1-6.7-15-6.7c-5.9,0-10.9,2.2-15,6.7
		c-4.1,4.5-6.1,9.9-6.1,16.2c0,6.3,2,11.7,6.1,16.2c4.1,4.4,9.1,6.7,15,6.7c5.9,0,10.9-2.2,15-6.7
		C509.7,618.7,511.7,613.3,511.7,607z"/>
	<path class="st1" d="M605.1,598.2l-19.2,38.9h-9.5l-19.1-38.9V643h-15.9v-71.2h21.5l18.3,39.1l18.4-39.1H621V643h-15.9V598.2z"/>
	<path class="st1" d="M687.5,578.2c5,4.2,7.5,10.8,7.5,19.6c0,8.8-2.6,15.2-7.7,19.3c-5.1,4.1-13,6.1-23.5,6.1h-9.5V643h-15.9v-71.2
		h25.2C674.6,571.8,682.6,573.9,687.5,578.2z M675.9,606.2c1.9-2.1,2.9-5.3,2.9-9.4c0-4.1-1.2-7-3.7-8.8c-2.5-1.7-6.3-2.6-11.6-2.6
		h-9.1v23.9h10.7C670.4,609.4,674,608.3,675.9,606.2z"/>
	<path class="st1" d="M754,643l-6.6-15.4h-29.8l-6.6,15.4H694l30.8-71.2h15.4l30.8,71.2H754z M732.5,593l-9,20.7h17.8L732.5,593z"/>
	<path class="st1" d="M828.9,571.8h15.9V643h-15.9L795,598.4V643h-15.9v-71.2H794l34.9,45.8V571.8z"/>
	<path class="st1" d="M893,643h-15.9v-28.1l-24.6-43.1h17.2l15.4,26.5l15.4-26.5h17.2L893,614.9V643z"/>
</g>
<g>
	<path class="st2" d="M133.4,514c9.5-36.8,20.2-73.1,32.1-108.9c11.8-35.8,26.6-70.3,44.3-103.8c3.4-4.9,7.8-8.6,13.2-11
		c5.5-2.5,11.1-3.7,16.9-3.7c0,3.8-1.4,6.9-4.2,9.5c-2.8,2.6-4.8,5.7-6,9.4c-6.3,18.8-12.9,37.5-19.8,55.9
		c-6.9,18.5-13.8,37-20.6,55.7c-6.9,18.7-13.5,37.3-19.8,56c-6.3,18.6-12.2,37.5-17.5,56.6c8.4,4.4,17,7.5,25.6,9.4
		c8.6,1.9,17.2,2.8,25.7,2.8c18.6,0,36.7-4.2,54.2-12.6c17.6-8.4,33.1-19.6,46.7-33.7c13.6-14.1,24.4-30.6,32.5-49.4
		c8.1-18.8,12.2-38.7,12.2-59.8c0-22.8-3.4-45.8-10.3-68.7c-6.9-22.9-17.1-43.5-30.7-61.8c-13.6-18.3-30.4-33.1-50.7-44.6
		c-20.2-11.5-43.5-17.2-69.9-17.2c-16.7,0-33.6,2.5-50.6,7.5c-17,5-32.3,12.4-46,22.2c-13.7,9.8-25,22-33.7,36.5
		c-8.8,14.5-13.2,31.3-13.2,50.4c0,6.4,1.1,12.7,3.4,18.9c2.3,6.1,5.5,11.7,9.6,16.6c4.1,4.9,8.9,8.8,14.5,11.8
		c5.6,3,11.8,4.4,18.6,4.4c8.7,0,17-1.6,25-4.8c8-3.2,15-7.6,21.1-13.3c6.1-5.6,11-12.4,14.6-20.3c3.6-7.8,5.5-16.3,5.5-25.3
		c0-4.7-0.8-9.1-2.4-13.5c-1.6-4.3-3.8-8.3-6.6-11.8c-2.8-3.5-6.2-6.3-10.1-8.3c-4-2-8.4-3-13.2-3c-4.5,0-8.8,0.9-13,2.6
		c-4.2,1.8-8,4.2-11.3,7.3c-3.3,3.1-5.9,6.8-7.8,11c-1.9,4.3-2.9,8.7-2.9,13.4c0,5.1,1.1,9.7,3.3,13.7c2.2,4,5.8,5.9,10.9,5.9
		c0.8,0,2.4-0.2,4.8-0.7c-1-2.3-1.5-4.8-1.5-7.7c0-7.7,3.7-11.5,11.2-11.5c4,0,7,1.4,9,4.1c2,2.7,3.1,5.9,3.1,9.5
		c0,5.9-2.6,10.3-7.8,13.1c-5.2,2.8-10.5,4.2-15.8,4.2c-7.8,0-14.1-2.6-19-7.7c-4.8-5.2-7.3-12.5-7.3-22c0-6.4,1.4-12.3,4.2-17.7
		c2.8-5.4,6.4-10,10.9-13.9c4.5-3.9,9.6-6.9,15.4-9c5.8-2.1,11.8-3.2,17.8-3.2c6.8,0,12.8,1.5,18,4.4c5.2,3,9.6,6.8,13,11.5
		c3.5,4.7,6.1,10.1,7.8,16.2c1.7,6.1,2.6,12.2,2.6,18.4c0,10.1-2.3,19.2-6.9,27.4c-4.6,8.2-10.5,15.3-17.8,21.4
		c-7.3,6-15.6,10.7-24.9,14c-9.3,3.3-18.5,5-27.7,5c-8.8,0-17.1-1.8-24.8-5.4c-7.7-3.6-14.5-8.4-20.3-14.6
		c-5.8-6.1-10.4-13.2-13.8-21.2c-3.4-8-5-16.5-5-25.5c0-20.4,4.9-38.2,14.9-53.5c9.9-15.3,22.5-28,37.7-38.1
		c15.3-10.1,32.2-17.7,50.9-22.7c18.7-5,36.7-7.5,54.2-7.5c26.6,0,51.5,5.4,74.5,16.4c23,10.9,43,25.6,60.2,44.2
		c17.1,18.5,30.5,39.9,40.3,64.1c9.8,24.2,14.7,49.4,14.7,75.7c0,23.6-4.4,45.7-13.3,66.1c-8.9,20.5-21,38.2-36.3,53.2
		c-15.4,15-33.3,26.9-53.7,35.5c-20.5,8.7-42.2,13-65.3,13c-7,0-14.1-0.1-21.1-0.4c-7-0.3-13.8-1.3-20.5-3.1
		c-6.6-1.8-13.2-4.6-19.6-8.4c-6.4-3.8-12.7-9.1-18.8-16c-1.3-1.7-2.7-3.3-4.4-4.6c-1.7-1.3-2.5-3.1-2.5-5.3v-1.5
		c0-3.1,1.1-4.7,3.4-4.7c2.1,0.5,4,1.4,5.6,2.7C130.6,511.5,132.1,512.7,133.4,514z"/>
	<path class="st2" d="M467.4,529.4c-6.6,4.4-14.8,8-24.7,10.7c-9.9,2.7-19.8,4.1-29.8,4.1c-5.8,0-11.5-0.6-16.9-1.8
		c-5.5-1.2-10.2-3-14.3-5.5c-4.1-2.4-7.3-5.6-9.8-9.4c-2.4-3.8-3.6-8.6-3.6-14.2c0-6.9,1.7-12.8,5.2-17.7c3.5-4.9,8-9,13.8-12.4
		c5.7-3.3,12.2-5.8,19.4-7.4c7.2-1.5,14.5-2.3,21.8-2.3c7.1,0,14,0.6,20.9,1.9c6.9,1.3,12.9,3.4,17.9,6.2c2.7-3.6,5.5-7.9,8.1-12.8
		c2.7-4.9,5-10.1,7.1-15.5c2.1-5.4,3.7-11,5-16.9c1.3-5.9,1.9-11.6,1.9-17c0-4.9-0.6-9.6-1.8-14c-1.2-4.4-3.1-8.4-5.8-11.8
		c-2.7-3.4-6.2-6.1-10.4-8.1c-4.3-2-9.6-3-16.1-3c-6.8,0-13.9,1.2-21.1,3.4c-7.3,2.3-13.9,5.6-20,10c-6.1,4.4-11.1,9.6-15,15.7
		c-3.9,6-5.8,12.9-5.8,20.7c0,2.2,0.5,4.3,1.5,6.1c1,1.8,2.2,3.5,3.6,5c1.4,1.5,2.8,2.9,4.2,4c1.3,1.2,2.5,2.4,3.5,3.7v0.8
		c0,2.1-1.1,3.5-3.2,4.1c-2.2,0.6-4.1,0.9-5.9,0.9c-6.6,0-11.3-2.5-14.2-7.5c-2.9-5-4.4-10.4-4.4-16c0-9.3,2.3-17.7,7.1-25.3
		c4.7-7.6,10.7-14.1,17.8-19.5c7.2-5.4,15.3-9.5,24.2-12.3c8.9-2.8,17.6-4.3,25.9-4.3c6.3,0,12.9,1,19.8,2.9
		c6.9,1.9,13.1,4.8,18.5,8.6c5.5,3.8,10,8.6,13.5,14.3c3.5,5.7,5.3,12.3,5.3,19.7c0,7.4-1.6,15.5-4.7,24.3
		c-3.2,8.8-6.7,17.6-10.6,26.3c-3.9,8.7-7.4,17.3-10.6,25.6c-3.2,8.3-4.7,15.7-4.7,22.1c0,4.1,0.9,8.3,2.8,12.6
		c1.9,4.3,5.1,6.4,9.7,6.4c2.9,0,5.3-0.7,7.3-2.2c2-1.4,3.9-3.1,5.9-4.9c1.9-1.8,3.9-3.4,6.1-4.8c2.1-1.4,4.6-2.1,7.3-2.1
		c0,3-0.9,5.9-2.6,8.8c-1.8,2.8-4,5.3-6.8,7.5c-2.8,2.2-5.8,3.9-9.2,5.3c-3.4,1.3-6.6,2-9.9,2c-4.8,0-9.4-1.2-13.6-3.7
		C472.8,538.4,469.6,534.6,467.4,529.4z M460.5,504.8c0-8.1-3.3-14-10-17.8c-6.7-3.8-14.4-5.8-23.1-5.8c-5.1,0-10.2,0.6-15.2,1.9
		c-5.1,1.3-9.6,3.2-13.5,5.8c-3.9,2.6-7.1,5.7-9.7,9.3c-2.5,3.7-3.8,7.9-3.8,12.8c0,8.4,3.2,14.7,9.7,18.7c6.4,4,13.9,6,22.3,6
		c5.1,0,10.2-0.7,15.5-2.2c5.2-1.4,9.9-3.5,14-6.2c4.1-2.7,7.5-5.9,10.1-9.6C459.2,514,460.5,509.7,460.5,504.8z"/>
	<path class="st2" d="M671.4,383.2c0,2.5-1.2,5-3.7,7.3l-0.7,1.9c0,4.4-0.2,10.2-0.7,17.3c-0.4,7.2-0.8,14.9-1.2,23.1
		c-0.4,8.2-0.8,16.6-1.1,25c-0.4,8.4-0.6,16-0.6,22.6c0,6.9,0.3,13.4,0.9,19.4c0.6,6,1.7,11.3,3.2,15.8c1.5,4.5,3.7,8.1,6.3,10.8
		c2.7,2.7,6.2,4,10.5,4c2.7,0,5.4-0.6,7.9-1.7c2.5-1.1,4.9-1.7,7-1.7c1.7,0,2.6,1,2.6,3c0,1.5-0.9,2.6-2.6,3.4H699
		c-6.5,1.4-11.3,2.1-14.5,2.1c-8.7,0-15.5-2.3-20.6-6.8c-5.1-4.5-9-10.5-11.6-18c-2.7-7.5-4.4-16-5.3-25.6
		c-0.9-9.6-1.3-19.6-1.3-29.9v-27.1c0-4.4,0-8.6,0-12.6c0-4.4,0.1-8.7,0.4-12.8c-10.6,12.3-21.4,25.7-32.1,40.2
		c-10.8,14.4-20.8,28.6-30,42.4c-4.1,6-8.3,12.6-12.7,19.6c-4.4,7-9,13.6-13.9,19.8c-4.8,6.2-9.9,11.4-15.1,15.6
		c-5.2,4.3-10.6,6.4-16.2,6.4c-4.3,0-7.2-1.5-8.6-4.4c-1.5-3-2.2-6.2-2.2-9.9c0-3.5,0.4-6.7,1.3-9.6l33.1-133.1
		c0.2-5.4,1-11.5,2.2-18.4c1.2-6.8,3.1-13.2,5.7-19.1c2.5-5.9,5.9-10.9,10.1-14.9c4.2-4,9.5-6,15.8-6c3.8,0,6.4,1.3,7.6,3.9
		c1.2,2.6,1.9,5.7,1.9,9.3c0,1.3-0.1,2.6-0.2,3.9c-0.1,1.3-0.3,2.6-0.5,3.9l-4.5,11.5c-5.3,13.2-10.8,26.7-16.5,40.4
		c-5.6,13.8-11,27.7-16,41.7c-5,14-9.6,28.1-13.8,42.3c-4.2,14.1-7.9,28.2-11,42.1c6.4-5.6,13.5-13.4,21.2-23.2
		c7.7-9.8,15.8-20.3,24.2-31.7c8.4-11.3,16.9-22.8,25.4-34.5c8.5-11.7,16.6-22.2,24.4-31.7c7.7-9.4,14.8-17.2,21.3-23.2
		c6.4-6,12-9,16.5-9C668.8,377,671.4,379.1,671.4,383.2z"/>
	<path class="st2" d="M814.2,514.4c0.2,0.2,0.3,0.9,0.3,1.9c0,1-0.2,1.9-0.7,2.7c-0.5,0.8-1,1.8-1.5,2.7c-6.1,8.5-14,14.9-23.8,19
		c-9.8,4.1-19.6,6.1-29.5,6.1c-11.4,0-21.8-2.6-31.2-7.9c-9.4-5.3-17.4-12.2-24-20.8c-6.6-8.6-11.7-18.2-15.4-28.9
		c-3.7-10.7-5.6-21.4-5.6-32.2c0-10.8,2.2-21.3,6.7-31.7c4.5-10.3,10.4-19.4,17.9-27.2c7.5-7.9,16.2-14.2,26.2-19.1
		c9.9-4.9,20.3-7.4,31.2-7.4c4.8,0,10,0.7,15.6,2c5.6,1.3,10.8,3.3,15.6,6c4.8,2.7,8.8,6.2,11.8,10.3c3,4.2,4.6,9.3,4.6,15.2
		c0,4.4-1,8.5-2.9,12.4c-1.9,3.9-4.5,7.3-7.6,10.3c-3.2,3-6.8,5.3-10.9,7.1c-4.1,1.7-8.3,2.6-12.6,2.6c-6.1,0-12-2-17.7-5.9
		c-5.7-4-8.5-9.4-8.5-16.3c0-5.4,2-10.1,5.9-14.2c4-4,8.5-6,13.6-6c3.5,0,6.9,1,10.4,3.1c3.5,2.1,5.2,5.3,5.2,9.7c0,2-0.4,3.9-1,5.8
		c-0.7,1.8-2.5,2.7-5.5,2.7c-1.9,0-3.1-0.6-3.7-1.6c-0.6-1.1-1.2-2.2-1.7-3.5c-0.5-1.3-1.1-2.3-1.7-3.4c-0.6-1-1.7-1.5-3.3-1.5
		c-2,0-3.2,1-3.7,3c-0.5,2-0.8,3.9-0.8,5.9c0,3.2,1.2,5.8,3.6,7.6c2.4,1.8,5,2.7,7.7,2.7c5.3,0,9.7-2.2,13.2-6.6
		c3.5-4.4,5.2-9,5.2-14c0-3.3-0.9-6.4-2.7-9.3c-1.8-3-4-5.5-6.7-7.7c-2.7-2.2-5.7-3.9-9.1-5.1c-3.4-1.2-6.8-1.8-10.1-1.8
		c-9.9,0-18.3,2.7-25.1,7.9c-6.8,5.3-12.4,11.8-16.8,19.7c-4.3,7.8-7.5,16.5-9.4,25.9c-1.9,9.4-2.9,18.3-2.9,26.8
		c0,7.5,0.6,15.7,1.9,24.6c1.3,8.9,3.7,17.1,7.1,24.7c3.4,7.6,8.1,14,14,19.1c5.9,5.2,13.6,7.7,23.1,7.7c9.6,0,18.9-2.4,27.6-7.3
		c8.7-4.9,16.4-10.9,22.9-18.1c0.2-0.2,0.7-0.4,1.3-0.4C812.1,511.8,813.2,512.6,814.2,514.4z"/>
	<path class="st2" d="M917.6,512.1c0,1.2-0.3,2.4-1.1,3.4c-4.1,4.9-8.8,9.3-14.2,13.2c-5.3,3.9-10.9,7.1-16.9,9.6
		c-6,2.5-12.1,4.5-18.3,6c-6.3,1.4-12.3,2.1-18.1,2.1c-6.8,0-12.6-1.3-17.5-4c-4.8-2.7-8.8-6.4-12-11.2c-3.2-4.8-5.5-10.3-6.9-16.6
		c-1.4-6.3-2.1-13.2-2.1-20.7c0-13.1,2-26.8,6.1-41.2c4.1-14.4,9.6-27.6,16.6-39.8c7-12.1,15.1-22.1,24.4-30.1
		c9.2-8,19.2-12,29.9-12c5.6,0,10.1,1.1,13.5,3.3c3.4,2.2,6,4.9,7.8,8.1c1.8,3.2,2.9,6.8,3.4,10.7c0.5,3.9,0.8,7.3,0.8,10.3
		c0,7.6-0.8,14.4-2.4,20.4c-1.6,6-5.1,11.1-10.4,15.4c-5.3,4.2-13.1,7.4-23.4,9.6c-10.3,2.2-24.2,3.3-41.6,3.3h-1.3
		c-2.5,6.1-4.8,13.6-7,22.2c-2.1,8.7-3.2,17.1-3.2,25.3c0,10,2.3,18.6,6.9,25.5c4.6,7,12.8,10.5,24.7,10.5c5.3,0,10.4-0.8,15.2-2.4
		c4.8-1.5,9.5-3.6,13.9-6.2c4.5-2.6,8.8-5.3,12.9-8.3c4.2-3,8.4-5.9,12.7-8.7c2-1.3,3.4-1.9,4.1-1.9
		C916.5,507.8,917.6,509.2,917.6,512.1z M889.4,384.4c-5.6,0-11.3,2.8-17.1,8.3c-5.8,5.5-11.1,11.6-16,18.3
		c-4.8,6.6-8.8,13.1-12,19.3c-3.1,6.2-4.7,9.8-4.7,10.8c14,0,25.2-1.1,33.7-3.3c8.5-2.2,15-5,19.6-8.5c4.6-3.5,7.6-7.3,8.9-11.6
		c1.4-4.3,2.1-8.5,2.1-12.6c0-5.7-1.5-10.5-4.5-14.6C896.3,386.4,893,384.4,889.4,384.4z"/>
</g>
</svg>
